# xmcd
#
# Track frame offsets:
#	150
#	16535
#	34680
#	49037
#	66457
#	85077
#	101567
#	117325
#	136942
#	151885
#
# Disc length: 2255 seconds
#
# Revision: 1
# Processed by: cddbd v1.5.2PL0 Copyright (c) Steve Scherf et al.
# Submitted via: audiograbber 1.83.01
#
DISCID=7508cd0a
DTITLE=Rebeca - Rebelde
DYEAR=1997
DGENRE=Pop
TTITLE0=Todos Los Chicos Son Igual
TTITLE1=Si Tu Te Vas
TTITLE2=Al Cien Por Cien
TTITLE3=Dime Si Me Quieres
TTITLE4=Mi Ciudad
TTITLE5=Locos Por Vivir
TTITLE6=Nada Me Puede Parar
TTITLE7=Mensajes De Amor
TTITLE8=Quisiera (Dúo Con Franciska)
TTITLE9=Mundo Feliz
EXTD=
EXTT0=
EXTT1=
EXTT2=
EXTT3=
EXTT4=
EXTT5=
EXTT6=
EXTT7=
EXTT8=
EXTT9=
PLAYORDER=
